<svg id="Capa_1" data-name="Capa 1" xmlns="http://www.w3.org/2000/svg" viewBox="0 0 117.74 114.84"><defs><style>.cls-1,.cls-2{fill:#fff;}.cls-1{fill-rule:evenodd;}</style></defs><title>github-logo</title><path class="cls-1" d="M59.87,1.85A58.88,58.88,0,0,0,41.26,116.59c2.94.54,4-1.28,4-2.83s-.05-6.05-.08-11c-16.38,3.56-19.83-7-19.83-7-2.68-6.81-6.54-8.62-6.54-8.62-5.34-3.65.4-3.57.4-3.57,5.92.41,9,6.06,9,6.06,5.25,9,13.77,6.4,17.13,4.9.53-3.81,2-6.41,3.74-7.88-13.08-1.48-26.82-6.53-26.82-29.09a22.79,22.79,0,0,1,6.06-15.8c-.61-1.49-2.62-7.47.57-15.58,0,0,4.95-1.58,16.2,6a55.86,55.86,0,0,1,29.48,0c11.24-7.61,16.17-6,16.17-6C94,34.38,92,40.36,91.37,41.85a22.7,22.7,0,0,1,6.06,15.8c0,22.61-13.77,27.59-26.88,29.05,2.11,1.82,4,5.41,4,10.9,0,7.88-.07,14.22-.07,16.16,0,1.56,1.06,3.4,4,2.82A58.88,58.88,0,0,0,59.87,1.85Z" transform="translate(-1 -1.85)"/><path class="cls-2" d="M23.3,86.38c-.13.29-.59.38-1,.18s-.67-.59-.53-.88.59-.39,1-.19.68.6.53.89Zm-.73-.54" transform="translate(-1 -1.85)"/><path class="cls-2" d="M25.68,89c-.28.26-.83.14-1.2-.27a.9.9,0,0,1-.17-1.23c.29-.26.82-.13,1.21.28s.46,1,.16,1.22Zm-.56-.6" transform="translate(-1 -1.85)"/><path class="cls-2" d="M28,92.43c-.36.25-.95,0-1.31-.51s-.36-1.15,0-1.4.94,0,1.31.49.36,1.16,0,1.42Zm0,0" transform="translate(-1 -1.85)"/><path class="cls-2" d="M31.18,95.71c-.32.35-1,.26-1.51-.23S29,94.33,29.34,94s1-.26,1.52.22.67,1.15.32,1.51Zm0,0" transform="translate(-1 -1.85)"/><path class="cls-2" d="M35.57,97.61c-.14.46-.8.67-1.47.47s-1.1-.74-1-1.2.81-.69,1.48-.48,1.1.74,1,1.21Zm0,0" transform="translate(-1 -1.85)"/><path class="cls-2" d="M40.39,98c0,.49-.55.89-1.25.9s-1.27-.38-1.28-.86.55-.89,1.26-.9,1.27.38,1.27.86Zm0,0" transform="translate(-1 -1.85)"/><path class="cls-2" d="M44.87,97.2c.09.47-.4,1-1.1,1.09s-1.31-.17-1.4-.64.41-1,1.09-1.1,1.32.17,1.41.65Zm0,0" transform="translate(-1 -1.85)"/></svg>