<?xml version="1.0" standalone="no"?>
<!DOCTYPE svg PUBLIC "-//W3C//DTD SVG 20010904//EN"
 "http://www.w3.org/TR/2001/REC-SVG-20010904/DTD/svg10.dtd">
<svg version="1.0" xmlns="http://www.w3.org/2000/svg"
 width="324.000000pt" height="402.000000pt" viewBox="0 0 324.000000 402.000000"
 preserveAspectRatio="xMidYMid meet">

<g transform="translate(0.000000,402.000000) scale(0.100000,-0.100000)"
fill="#FFB4D8" stroke="none">
<path d="M1560 3997 c-20 -7 -69 -44 -116 -89 -45 -43 -89 -78 -98 -78 -9 0
-42 13 -74 29 -145 72 -229 70 -294 -7 -13 -16 -42 -68 -63 -116 l-39 -88
-116 7 c-123 7 -157 1 -198 -38 -40 -37 -53 -75 -63 -181 -6 -55 -15 -106 -22
-112 -7 -6 -54 -22 -106 -34 -81 -20 -99 -28 -136 -64 -59 -57 -65 -98 -30
-230 14 -55 24 -104 22 -111 -3 -6 -36 -32 -75 -58 -118 -79 -161 -148 -143
-227 10 -44 22 -68 78 -149 23 -35 43 -73 43 -85 0 -12 -23 -55 -51 -95 -111
-158 -99 -241 51 -347 110 -77 107 -71 81 -161 -35 -118 -36 -160 -9 -213 29
-56 73 -82 190 -111 49 -12 90 -25 93 -29 3 -4 9 -56 14 -114 17 -190 73 -236
268 -214 47 5 92 7 100 4 7 -3 21 -23 30 -43 13 -32 15 -101 14 -506 l-2 -468
30 -29 c34 -35 55 -37 96 -11 17 10 154 120 305 245 151 124 277 226 280 226
3 0 129 -102 280 -226 151 -125 289 -235 305 -245 41 -26 62 -24 96 11 l30 29
-2 468 c-1 405 1 474 14 506 9 20 23 40 30 43 8 3 53 1 100 -4 195 -22 251 24
268 214 5 58 11 110 14 114 3 4 44 17 93 29 117 29 161 55 190 111 27 53 26
95 -9 213 -26 90 -29 84 81 161 150 106 162 189 51 347 -28 40 -51 83 -51 95
0 12 20 50 43 85 56 81 68 105 78 149 18 80 -25 149 -148 231 -40 27 -73 54
-73 59 0 5 12 54 26 107 34 131 28 173 -31 229 -37 36 -55 44 -136 64 -52 12
-99 28 -106 34 -7 6 -16 57 -22 112 -10 106 -23 144 -63 181 -41 39 -75 45
-198 38 l-116 -7 -39 88 c-21 48 -50 100 -63 116 -65 77 -149 79 -294 7 -32
-16 -65 -29 -74 -29 -9 0 -54 36 -99 79 -102 98 -148 115 -235 88z m154 -225
c121 -116 179 -126 325 -53 103 52 94 56 151 -63 40 -85 58 -111 88 -131 48
-32 107 -39 207 -26 44 5 84 6 88 1 5 -4 12 -53 17 -107 13 -168 46 -206 211
-246 67 -17 95 -28 97 -39 2 -9 -6 -48 -17 -86 -24 -80 -27 -171 -7 -210 18
-35 56 -69 133 -121 34 -22 65 -46 68 -52 4 -6 -17 -47 -47 -92 -67 -102 -78
-128 -78 -178 0 -52 18 -94 80 -183 27 -40 50 -77 50 -83 0 -6 -30 -32 -67
-57 -93 -62 -108 -76 -132 -116 -27 -45 -27 -122 -1 -215 30 -104 31 -101 -57
-121 -129 -28 -177 -54 -209 -117 -11 -21 -30 -151 -34 -239 0 -4 -57 -5 -127
-2 -116 5 -131 4 -159 -14 -45 -29 -77 -75 -114 -164 -24 -56 -38 -78 -51 -78
-9 0 -55 18 -100 40 -91 44 -152 51 -214 26 -18 -8 -70 -49 -114 -92 l-81 -77
-81 77 c-44 43 -96 84 -114 92 -62 25 -123 18 -214 -26 -45 -22 -91 -40 -100
-40 -13 0 -27 22 -51 78 -37 89 -69 135 -114 164 -28 18 -43 19 -157 14 l-127
-5 -6 37 c-3 20 -6 58 -6 83 0 65 -25 141 -57 171 -35 34 -77 51 -175 72 -89
20 -88 17 -58 121 49 170 20 236 -150 345 -28 18 -50 37 -50 43 0 6 23 43 50
83 107 154 107 203 2 361 -30 45 -51 86 -47 92 3 6 34 30 68 52 77 52 115 86
133 121 20 39 17 130 -7 210 -11 38 -19 77 -17 86 2 11 30 22 97 39 165 40
198 78 211 246 5 54 12 103 17 107 4 5 44 4 88 -1 100 -13 159 -6 207 26 30
20 48 46 88 131 57 119 48 115 151 63 146 -73 204 -63 324 53 44 42 86 78 94
78 8 0 50 -35 95 -78z m-286 -2932 c39 -38 89 -78 111 -90 84 -42 162 -19 259
78 92 92 78 89 183 42 50 -23 114 -44 140 -47 l49 -6 0 -279 0 -280 -37 30
c-21 16 -135 109 -253 206 -118 97 -225 179 -237 182 -13 4 -33 4 -45 0 -13
-3 -133 -96 -267 -206 -135 -111 -248 -203 -253 -206 -4 -3 -8 120 -8 274 l0
279 49 6 c26 3 88 24 137 46 49 22 92 41 95 41 4 0 38 -31 77 -70z"/>
<path d="M1414 3535 c-425 -77 -778 -379 -915 -783 -84 -248 -85 -514 -3 -762
188 -564 779 -904 1363 -784 700 145 1117 879 879 1552 -144 409 -489 703
-912 777 -106 18 -312 18 -412 0z m413 -159 c458 -97 793 -485 820 -951 17
-303 -98 -591 -323 -804 -130 -124 -263 -199 -442 -249 -87 -24 -114 -27 -262
-27 -184 0 -264 16 -411 79 -390 169 -640 576 -616 1001 30 505 411 904 927
969 60 7 234 -3 307 -18z"/>
<path d="M1578 3159 c-9 -5 -65 -99 -123 -209 -59 -110 -109 -200 -112 -200
-37 0 -424 -76 -441 -87 -30 -18 -44 -56 -33 -86 5 -13 77 -94 160 -180 83
-86 151 -162 151 -169 0 -7 -14 -107 -30 -221 -16 -115 -26 -216 -23 -225 12
-33 36 -52 68 -52 20 0 106 35 229 95 l196 94 197 -94 c122 -59 208 -95 228
-95 32 0 56 19 68 52 3 9 -7 110 -23 225 -16 114 -30 214 -30 221 0 7 68 83
151 169 83 86 155 167 160 180 11 30 -3 68 -33 86 -13 8 -119 32 -236 53
l-212 37 -106 199 c-58 109 -114 202 -124 208 -24 13 -60 12 -82 -1z m122
-380 c41 -77 82 -146 91 -155 11 -10 310 -74 348 -74 2 0 -51 -56 -118 -125
-101 -104 -121 -130 -121 -155 0 -17 9 -96 21 -176 11 -81 19 -148 17 -150 -2
-1 -68 28 -147 67 -79 38 -156 69 -172 69 -15 0 -92 -32 -170 -70 -78 -39
-144 -69 -146 -66 -2 2 5 69 16 150 12 80 21 159 21 176 0 25 -20 51 -121 154
-118 122 -119 124 -92 130 15 3 91 17 167 31 76 13 146 31 155 39 9 8 50 78
91 155 41 78 77 141 80 141 3 0 39 -63 80 -141z"/>
</g>
</svg>
