<?xml version="1.0" standalone="no"?>
<!DOCTYPE svg PUBLIC "-//W3C//DTD SVG 20010904//EN"
 "http://www.w3.org/TR/2001/REC-SVG-20010904/DTD/svg10.dtd">
<svg version="1.0" xmlns="http://www.w3.org/2000/svg"
 width="512.000000pt" height="512.000000pt" viewBox="0 0 512.000000 512.000000"
 preserveAspectRatio="xMidYMid meet">

<g transform="translate(0.000000,512.000000) scale(0.100000,-0.100000)"
fill="#FFB4D8" stroke="none">
<path d="M4165 4799 c-43 -24 -345 -335 -355 -364 -5 -16 -16 -140 -25 -275
l-15 -245 -775 -775 c-453 -454 -779 -787 -785 -804 -28 -76 48 -156 120 -127
14 5 369 354 790 776 421 421 772 770 782 776 9 5 126 16 260 24 133 9 257 20
273 25 31 10 343 316 364 357 6 12 11 33 11 47 0 30 -42 82 -72 89 -13 3 -117
0 -233 -7 -115 -7 -213 -11 -216 -7 -4 3 0 102 7 219 7 120 9 223 5 235 -20
51 -93 81 -136 56z m-83 -509 c-10 -149 -2 -183 52 -205 19 -8 41 -13 48 -11
7 3 69 7 138 11 l125 6 -47 -47 -46 -47 -184 -12 c-100 -7 -185 -11 -187 -9
-3 2 0 88 6 190 l10 185 44 45 c26 26 45 40 47 32 1 -7 -1 -69 -6 -138z"/>
<path d="M2140 4309 c-595 -49 -1153 -379 -1491 -883 -253 -376 -374 -852
-329 -1297 34 -337 147 -655 329 -925 338 -505 870 -822 1480 -884 604 -61
1248 184 1646 626 166 183 245 299 342 500 263 547 267 1173 8 1727 -37 80
-116 218 -143 249 -40 47 -134 28 -159 -30 -19 -45 -12 -69 47 -167 126 -210
206 -454 237 -720 36 -315 -30 -690 -173 -981 -147 -299 -358 -539 -636 -721
-334 -219 -767 -325 -1156 -282 -563 61 -1035 347 -1339 811 -219 334 -325
767 -282 1156 69 642 434 1167 1003 1446 199 98 426 158 675 178 348 28 726
-61 1026 -242 98 -59 122 -66 167 -47 42 17 63 61 54 110 -8 41 -17 50 -118
110 -347 208 -765 301 -1188 266z"/>
<path d="M2174 3769 c-396 -33 -786 -255 -1034 -590 -185 -249 -280 -543 -280
-864 0 -422 171 -808 478 -1082 205 -182 424 -293 692 -350 121 -26 449 -26
570 0 433 92 790 355 996 734 163 298 217 640 153 973 -29 150 -117 381 -165
431 -60 63 -164 21 -164 -64 0 -21 12 -62 29 -95 102 -202 148 -483 117 -702
-31 -210 -86 -362 -192 -527 -185 -289 -500 -499 -838 -558 -114 -19 -328 -19
-442 0 -512 90 -929 507 -1019 1019 -19 114 -19 328 0 442 59 337 270 654 558
838 327 210 712 258 1079 135 51 -17 119 -44 150 -60 33 -17 74 -29 95 -29 85
0 127 104 64 164 -50 48 -281 136 -431 165 -66 13 -251 32 -289 30 -14 -1 -71
-6 -127 -10z"/>
<path d="M2140 3215 c-229 -53 -407 -163 -546 -338 -73 -93 -122 -189 -160
-313 -25 -81 -28 -104 -28 -249 0 -145 3 -168 27 -247 37 -122 80 -207 148
-298 131 -173 288 -280 506 -342 113 -33 343 -33 456 0 181 52 299 121 427
252 126 128 201 269 241 453 35 157 13 415 -41 472 -48 51 -134 38 -160 -25
-11 -26 -10 -46 3 -124 21 -114 21 -184 2 -277 -57 -269 -247 -479 -498 -550
-116 -33 -288 -33 -404 0 -227 64 -420 257 -484 484 -33 116 -33 288 0 404 71
251 281 441 550 498 93 19 163 19 277 -2 107 -19 145 -10 169 38 37 70 -3 131
-100 155 -89 22 -305 27 -385 9z"/>
<path d="M2144 2641 c-146 -69 -224 -236 -189 -403 25 -122 119 -231 236 -274
60 -22 181 -22 245 0 79 26 163 99 202 175 42 84 43 132 3 172 -55 55 -126 31
-168 -57 -33 -70 -70 -97 -144 -102 -108 -8 -184 59 -184 163 0 72 35 123 109
158 88 42 112 113 57 168 -39 38 -86 38 -167 0z"/>
</g>
</svg>
