<svg id="Capa_5" data-name="Capa 5" xmlns="http://www.w3.org/2000/svg" viewBox="0 0 1918.41 581.18"><defs><style>.cls-1{fill:#132c45;}.cls-2{fill:#1e4463;}</style></defs><title>layer5</title><path class="cls-1" d="M1,663.49s30.57,24.68,37.61,22.86,24.52-2.61,27.39-7.83,2.61-16.43,9.92-16.69,18.52,5.21,21.39,4.43S119,669.91,120,669.91s20.87,10.7,20.87,10.7l21.92,7s5.74,20.87,11.47,21.65,18,35.22,29.74,35.22,25.05,21.13,35.74,18.26,35.22,7.58,39.92.27,16.17-17.22,16.43-20.09,17.74-7.83,17.74-7.83,27.65,8.35,28.43,8.09,50.87,9.91,50.87,9.91,12,14.61,16.18,15.13,24,26.09,35.74,25,47.48,25.31,61.3,25.83,43.83-6.78,44.61-8.35,19.57-9.13,21.13-8.61S611,813.91,611,813.91s40.7,16.7,49.83,16.7,39.91,2.87,39.91,2.87,13.56-3.91,17.48-4.7,33.13,0,35.48.26,24.78,12.79,26.6,13.57S807,837.2,807,837.2s21.91-3.53,24.26-6.85,13.11-7.44,13.11-7.44l33.45.39c.79,0,17.61,13.11,20,13.11s11.15,14.09,15.07,12.92,35.6-1.18,35.6-1.18,22.11-5.87,25.44-7.63,26.22.59,29.15,2,28.76,19.37,31.7,17.8,37.17-7.82,37.17-7.82,32.68-12.53,33.46-14.29,25.82-1.76,28.56-1.95,12.92,8.41,18,7,50.87-5.28,51.26-4.69,9.79,12.32,15.07,13.3,64.17,5.09,68.09,4.3,38.74-1,42.84-3.52,49.9-10.37,49.9-10.37,42.84,3.13,49.1.2,49.31-2,54-2.55,28.18,8.81,36,6.66,52.63,5.87,54,3.32S1613.85,836,1613.85,836s25.63.59,33.06,2.15,43.24,16.05,47.35,14.48,38.54-4.11,42.85-6.45,58.11-17.61,58.11-17.61l42.26-24.85s22.3-12.33,25.24-10.76,34.63-28.76,34.63-28.76l21.61-4.11V1243H1.69Z" transform="translate(-1.04 -661.82)"/><path class="cls-2" d="M97.35,666.26l-14.61,8.65v9.92L69.43,690.3l-14.6,14.61L82,720.57l-.26,18,36.52,17.73,70.95,2.61,36,5.74,9.07-2.22s-19.76-17.6-27.85-17.08-17.65-15.19-17.65-15.19-8.44-18-14.44-20.86c-3.65-5.69-7.06-7.37-11.47-21.65-6.51-2.09-20.18-6.52-22.14-7.3s-17.8-9.79-20.25-10.32S100.58,665.61,97.35,666.26Z" transform="translate(-1.04 -661.82)"/><path class="cls-2" d="M344.89,743.6H310.22l-7.05,4.94-13.89,14.71,24.26,7.6,9,12.13,24.85,1,61.24,10.76,36.78,10.76,16.24,2.17s8.42,5.07,9.2,5.65,22.88,1.93,22.88,1.93-29.09-15.78-35.28-18.05-7.23-5.09-13.36-3.88c-4-.54-13.77-5.43-20.22-11.49s-8.94-12.81-15.52-13.55c-5.57-3.71-16.18-15.13-16.18-15.13Z" transform="translate(-1.04 -661.82)"/><path class="cls-2" d="M572.13,802.17l-3.91,4.74-7.83,4.44-8,7.82L564.7,827s35.47,3.39,35.87,3.39,12.52,7,12.52,7l43.3-4.69,3.67-2.17-49.87-16.9Z" transform="translate(-1.04 -661.82)"/><path class="cls-2" d="M719.12,828.67l2.88,3.55,10.3.78s2.74,5.09,3.27,5.22,28.82,5.35,28.82,5.35l15.91-1s-22-13.35-26.6-13.57S723.4,826.42,719.12,828.67Z" transform="translate(-1.04 -661.82)"/><path class="cls-2" d="M845.13,824.26l11,.59,9.19-1.69,12.52.14c1.41,0,19.54,13,19.54,13s.65-.5,2.59,1.61,10.19,11.67,11.8,11.37a9.27,9.27,0,0,1,2.36-.22l1.28.8-7.11,3.69-22.86,3.75-25.2-3.53-22.83,5-7.3-13.14,10.17-13.34,4.89-4.63Z" transform="translate(-1.04 -661.82)"/><path class="cls-2" d="M977.93,842.36l6.21-.88,8.37-.78s7,0,9.88,1.55a5.07,5.07,0,0,1,3.09,1.68c2,1,11.28,7.23,11.28,7.23l11.72,7,4.43,2-5.28,1.18-19,2.69-11.5,3.67-24.7-.54L972.11,853Z" transform="translate(-1.04 -661.82)"/><path class="cls-2" d="M1105.35,838.17l-6.46,6.63-6.72,8,25.9,1.34,11.06,6.09H1158L1187.72,871l29.35-5.48,16.82-4.89,4.33-7s-17.44-1.33-20.37-2.33c0,0-7.36-4.3-8.84-6.39a47.7,47.7,0,0,0-5.84-6.37c-1.32-.4-1.88-.3-4.84,0s-15.14,1-15.14,1l-12.62,1.34-11.32,1.25-7,.85a13.61,13.61,0,0,1-6.84-1.13c-3.08-1.58-9-5.27-10.35-5.47a3.28,3.28,0,0,0-2.23-.18l-10.07.23S1106.84,836.17,1105.35,838.17Z" transform="translate(-1.04 -661.82)"/><path class="cls-2" d="M1613.85,836l-13,6.76-8.35,9.79,29.22,4.56,42.39-1.83,26.56-2.89-35.8-11.78a29.36,29.36,0,0,0-10.25-2.83C1638.42,837.16,1618.45,835.75,1613.85,836Z" transform="translate(-1.04 -661.82)"/><polygon class="cls-2" points="1909.3 99.93 1897.38 107.27 1893.08 114.8 1881.73 126.64 1887.5 140.82 1880.46 149.53 1906.87 155.21 1918.41 156.57 1917.91 98.29 1909.3 99.93"/><path class="cls-1" d="M300.3,802.17l6.27-19L292,746l-20.84-13.57v-21.3s-13.64-12.21-12.59-16.38,27.13-3.52,27.13-3.52,21.39,9.26,27.13,7.69,27.93-1.56,27.93-1.56L377,705.64s2,5.09-1.61,7-2.6,23.67-10.43,20.88-24.47,5.56-24.47,5.56,10.77,16.43,11.62,18.39,39.36,47.35,39.36,47.35l11.06,30.81L289.28,825.7Z" transform="translate(-1.04 -661.82)"/><path class="cls-1" d="M660.06,830.57l7.55-25.22V790.22l-3.78-22.62-3.77-11.15s-1-3.67,3.77-4.25,21.47-1.5,23.06,0,13.59,6.71,13.59,6.71-1.57,13.05,0,15.66,8.07,19.82,5.34,20.86-8.47,11.39-8,12.22,3.24,17.4,8.61,20.06,12.64,1,12.64,1l-4.06,17.85-56.34-2.95Z" transform="translate(-1.04 -661.82)"/><path class="cls-1" d="M1288.44,856s6.3-7.31,8.39-9.39,3.65-16.69,4.17-20.86,3.13-12.62,0-18.05,2.61-17.43,7.83-17.95,21.91,3.65,24,5.73,19.3-2.21,25.56-2.67,47.48,1.48,52.7,0,21.39-.59,29.21,0,30.27,2.15,44.87,2.67,37.57,1.57,40.7,4.18,15.13,14.85,9.39,16.55-14.09,16.32-14.09,16.32l10.51,14.24L1529.75,879l-244.86-8Z" transform="translate(-1.04 -661.82)"/><path class="cls-2" d="M691.23,754.66l-9.8,1.79-7,2.46v7.83s1.31,8.48,2.35,8.67,1.89,11.16,1.89,11.16l6.46,5.21-.52,5.74,2.32,11.22L682.81,815s-5.55,1.78-5.55,4.8a22.89,22.89,0,0,0,1.37,6.68l22.11,7,9.92-4.5s-11.75-13-12.79-21.33c4.7-7,7.29-10.66,8-12.22s4.31-3.39-5.34-20.86c-.68-4.17,2.2-14.68,0-15.66S691.23,754.66,691.23,754.66Z" transform="translate(-1.04 -661.82)"/><path class="cls-2" d="M321.65,697.87l-12.48,5.74L298,700.74l-7.31,7.3,17.22,10.7-6.52,6,16.17,6L326.13,749l21.65,31.57,19.57,12.52,11.69-3-38.51-51s13.6-6.56,19-6.06,8,3.22,10.39-1.84,3.34-13.75,3.34-13.75,1.17-4.52,2.14-4.79,4.25-4.84,1.61-7c-3.17-.6-36.28-8.29-36.28-8.29Z" transform="translate(-1.04 -661.82)"/><path class="cls-2" d="M1430.91,792.76l-16,9.2-4,11.34,10,4.7-4.84,9.78,18.72,11.74,16.11,14.08,34.43-4.3,34.83,4.3,11.55-6.88-10.51-14.24s9.63-15.81,14.44-16.45c1.67-.31,1.57-2.83,0-5.21-1.78-3.39-5.84-9.65-10.93-12.06s-84.11-8-88.75-6.85S1430.91,792.76,1430.91,792.76Z" transform="translate(-1.04 -661.82)"/><path class="cls-1" d="M1415.52,798l12.26,7.05h21.39V814l26.35,1,7.31,10.43s10.43-1.82,12.52,0,5.22,7.62,6.78,8.9,6,19.27,6,19.27-8.87,16.18-9.65,16.18-36.65-6.52-36.65-6.52-40.83-7.84-44-9.66-22.7-28.69-22.7-32.34S1415.52,798,1415.52,798Z" transform="translate(-1.04 -661.82)"/><polygon class="cls-2" points="1530.64 184.9 1543.96 186.28 1553.58 187.38 1562.7 188.3 1549.87 197.53 1532.39 197.53 1515.43 195.31 1506.7 190.26 1530.64 184.9"/><polygon class="cls-1" points="294.21 92.47 302.72 108.25 283.94 103.36 294.21 92.47"/></svg>