<svg id="Capa_6" data-name="Capa 6" xmlns="http://www.w3.org/2000/svg" viewBox="0 0 1922.09 551.78"><defs><style>.cls-1{fill:#000723;}.cls-2{fill:#051549;}</style></defs><title>layer6</title><path class="cls-1" d="M0,714.57s36.62,28.84,41.59,27.09,28-2.26,31.37-6,26.93-2,30.07,1,33.73,13.55,33.73,13.55,20.39,21.82,29,21.32,41.3,14.3,42.35,13.3S239,782.55,240,782.3s41.44,2.44,43.6,4.35,27.52,15.71,36.67,16.72,60.91,27.34,68.76,25.33,41.3,15.31,51.5,13.55,31.89,8.78,42.88,5.52,45.08-12.44,50-5S572.05,867.1,584.6,866s64.58,7.64,69.81,1.62,32.42-6.26,39.47-1.62,16.74,18.43,33.47,17.67,69-3.26,73.46-5,52-2.51,57-5.52,44.7-4.77,44.7-4.77,22.49-3.76,30.07,1.51,13.51,15.3,28.45,16,102.53,7.28,105.15,6,38.17,2.76,43.66-3.76,40-11.29,47.58-8.28,13.85,14.87,24,12.2,81.57-4.67,83.66-5.93,71.9-2,75,.25,48.11,8.28,53.86,5,32.42-9.53,34.51-12,74.77-18.06,74.77-18.06,25.1.75,37.91-.76,80.53-5.77,88.37-6,37.65,6,46.27,6.78,48.89,5.28,54.12,4.65,52.55,1.89,59.61,0S1890,817.17,1890,817.17l32.12-5V1243H0Z" transform="translate(0 -691.22)"/><path class="cls-2" d="M69.75,737.28v8.27L61.2,759.34l21.31,13s31.37,16.43,33.72,17.31,68.63,18.56,68.63,18.56l26.8-11.92,23.66-7.15,19.9-6s-18.46-1.75-23.95-1-34.38-2.26-41.7-5.39-27.85-5.52-32.16-9.66-20.65-16.93-20.65-16.93l-30.47-11.66s-5-4.28-14.37-4.64-14.91-.91-17.85,1A25.19,25.19,0,0,1,69.75,737.28Z" transform="translate(0 -691.22)"/><path class="cls-2" d="M186.43,810.39l19.87,10.54,82.55,11,25.79,14.55,70.56-18.07-17.8-6.15-29.9-12.72s-11.85-5.81-18.81-6.48c-5.66-2.24-28-11.21-29.86-13.25s-1-3.73-3.9-4-30.19-2.58-30.19-2.58l-75,23.57Z" transform="translate(0 -691.22)"/><path class="cls-2" d="M526.41,840.05,509.73,845l-7.84,6.21,16.86,8.37,4.71,8.09s27.06.47,28.53.75,27.65,0,27.65,0l.71-2.56s-19.73-5.06-26.79-9.39-14.73-9.36-15.08-10.08S536.37,839.66,526.41,840.05Z" transform="translate(0 -691.22)"/><path class="cls-2" d="M673.11,862.79l-9,4.42-5.36,5.9,6.14,4.14,4.84,4.64h45.36s-8.85-3.84-13.25-9.26-7.93-9.14-14.59-9.85S675.73,861.51,673.11,862.79Z" transform="translate(0 -691.22)"/><path class="cls-2" d="M865.05,871.35l5.76,3.32,3.73,6.78,7.65,4.89,27.45,4.51,38.63,7.53,32-1.5,21.83-8.29-47.81-4s-12.77-6.34-15-9.08-6.45-8.19-15.91-8.28S874.18,868.69,865.05,871.35Z" transform="translate(0 -691.22)"/><path class="cls-2" d="M1120.66,883.05l-3.27,7.33-2.75,8.19,23,.56,4.8,4.71,22.85-.66,10.49-6.3,2.45-4.42s-3.46.95-9.18-3.87-7.17-9.85-17-9.57S1133,878.16,1120.66,883.05Z" transform="translate(0 -691.22)"/><path class="cls-2" d="M1518.07,861.5l19.61,8.09h27.45l45.49,10.92,59.22-4.89,60.39,2.25L1762,866.5l-28.43-1-24.06-.85-37.06-3.76s-30-7.16-46.46-6.2-69.35,4.16-69.35,4.16Z" transform="translate(0 -691.22)"/><path class="cls-2" d="M501.89,851.16l-9.71,6.77,1.38,10.57,25.68,11.44,55.89.94,31.38-3.57,83.91,11.28,34.71-1.5,4.09-3.53S712.85,880,701.05,872c-14.55-5.38-27.94-9.17-27.94-9.17s-12.3-.09-14.68,1.87-8.08,5-11.76,4.35-10.74.4-13.87.3-16.89-1.48-16.89-1.48l-20.59-2.07s-8.41,0-10.59-.14-10.51-.14-10.51-.14l-16.45-7.74-13.58-7.25Z" transform="translate(0 -691.22)"/><path class="cls-2" d="M882.19,886.34l31.3,17.5,84.45,10.91L1082.65,925l62.74-14.55,19.94-7.3-44.67-20.13s-5.33-.41-10.82,5.11c-9.15,1.5-50.72,3.26-50.72,3.26l-67.19-3.26s-36.34-1.51-46.8-7.53-5-17-37.91-13.38S882.19,886.34,882.19,886.34Z" transform="translate(0 -691.22)"/><path class="cls-2" d="M870.81,874.67l-3,13.92-2.78,27.63L903.83,937s108,30.52,109.17,30.52,75.91-13.31,75.91-13.31l86.09-31.3s110.35-5.09,112.7-5.09S1331.52,935,1333.48,935s84.52-5.48,84.52-5.48l38.35-16.82L1503.7,888l95.47,14.87s79-4.3,82.57-3.13,49.3-.78,55.56-3.91,16.44-7.83,22.7-10.17,24.46-19.18,24.46-19.18-242-3.52-244.37-3.52h-40.31l-97.43,17.51s-49.7,6.75-73.18,2.06-17.6-5.56-45.39-3.57-23.87,10.22-51.65,7.09-83.74-5.58-83.74-5.58l-67.69,4.79-106.83,6.12Z" transform="translate(0 -691.22)"/><path class="cls-1" d="M391.51,828.59,409.61,791V741.3c0-1.17-9.05-23.08-9.05-23.08l2.4-23.48,39.52-3.52,41.87,6.26h38.59l11.25,12.81-4.45,53-27.85,20.07L522.94,840l-64,35.17Z" transform="translate(0 -691.22)"/><path class="cls-1" d="M1312.61,879l23.61-47.3,4.69-46.28-8.61-27.94-7.55-17.38s62.34-3.34,66.25-3.22,59.81,9.32,59.81,9.32l28.76-8,21.78,13.56L1473.19,778s-4.58,18.46-4.65,24.72S1498,836,1498,836l20,25.51,25.25,42.34L1482.17,925l-81.3,27.38-116-15.06-82.5-.78-19.49-14.06,23.48-38.68s44.53,5.29,49.13-2S1312.61,879,1312.61,879Z" transform="translate(0 -691.22)"/><path class="cls-2" d="M431.77,692.17l-6.9,6.48-5.09,8.42,12,4-.84,6.71L442.87,720l17.22,1,4.89,6,13.5,2.61,7,5.28,10.18,3.52,6.06,17-4.89,10.76-14.09,8,1.76,34.63s10.57,17.22,11,18.59-1,18.23-1,18.23l-2.34,12.31,28.17,1.35,6.06-19.23-3.47-.09-21.05-56.64,27.85-20.07,4.45-53-11.25-12.81H484.35l-41.87-6.26Z" transform="translate(0 -691.22)"/><path class="cls-2" d="M1416.1,740.58l-22.23,2.94-28.7,4.18L1355,756.57,1368.83,768l1.82,14.61,23.48,5.22,33.91,5.22s1.31,18.52,1.57,19.3,18,52.18,18,52.18l32.09,18.26,57.88,11.39-16.92-32.89-8-6.71L1498,836s-13.65-24.38-19.91-25.42-8.5-16.26-8.31-17.26,6.63-18.33,6.63-18.33,17.21-8.91,18.6-13.79,6.3-9.46,6.3-9.46-17.74-14.68-21.78-13.56l-28.76,8Z" transform="translate(0 -691.22)"/><path class="cls-1" d="M865.05,895.78l27.88,2.6,11.57,22.27L955.61,925l21.91,14.4,50.25-5.73,56.19-3.13s29-14,30.68-15.33,16.27,9.79,16.27,9.79l13.57,27.38-83.15,43.37s-176.49-19.82-180-20.35S833,897.52,835.61,895.78,865.05,895.78,865.05,895.78Z" transform="translate(0 -691.22)"/><path class="cls-1" d="M1475.13,886.48l48.52-6,26.61,7.92,32.09-4,10.17,9.75,25.83-2.26v6.65s9,5.48,11.74,6.65,38.74-12.38,38.74-12.38,16.82-2.13,23.47,0,11.74,21.34,12.53,22.32-58.75,22.5-63.22,22.89-122.65-4.3-125.39-3.91-66.13-6.65-63-14.09S1475.13,886.48,1475.13,886.48Z" transform="translate(0 -691.22)"/><path class="cls-1" d="M729.33,879l3.33-38,7.21-33.31,15.65-27.22s3.17-12.39,3.15-15.78-.56-23.32,3.83-27.77,6.33-25.31,6.33-25.31,27.52-.4,30.19,0,5,.22,8.15,5,3.13,8.14,7.05,15.85,9.18,14.51,7.56,19.58-.88,27.07-2.27,33.42-1,32.67,0,34.38,3.71,7.08,8.6,14.53a31.27,31.27,0,0,1,4.66,16.16l25,22.62,10,15.48L732.66,903.84l-29.57-5.46Z" transform="translate(0 -691.22)"/><path class="cls-2" d="M799,711.57,780.3,727l2.35,20.21s-4.6,10.38-4.65,11.19,9.61,9.94,12.22,14.9,4.43,32.45,4.43,34.35S808,858.76,808,858.76l23.21,8.89,21.92,11,4.72-5.54-25-22.62s-1.7-21.45-13.26-30.69c2.79-7.15.45-37.69.45-37.69s.52-16.1,3.13-18.86-1.73-13.68-1-16.22C820.76,745.15,813.82,711.72,799,711.57Z" transform="translate(0 -691.22)"/></svg>