<svg id="Capa_2" data-name="Capa 2" xmlns="http://www.w3.org/2000/svg" viewBox="0 0 1920 652.78"><defs><style>.cls-1{fill:#e392be;}.cls-2{fill:#e8aacf;}</style></defs><title>layer2</title><path class="cls-1" d="M2.09,580.3s21.82,6,26.91,4.49,22.89-4.79,26.41-7,16.83-10.9,19-13.3,2.94,1.09,6.26,2.84,13.7,4.14,17.22,3.92a15,15,0,0,0,8.61-3.49c1.56-1.52,2.93.88,5.67-1.52a111.16,111.16,0,0,0,9.78-9.59c2.16-2.62,2.55-2.83,6.27,2.83S139.35,577.6,149.13,575c9.39,4.79,18,11.76,18.78,11.33s20.94,2.44,22.31,0,9.39-7.21,11.35-10.26c2.15,1.52,9.78,3.26,11.73,4.35s20.94,12.43,20.94,12.43,15.65-12,17-15.69,8.41-18.31,10.37-19.62,2.15,2.4,6.65-4.58,18-27.68,19.76-25.71,5.68.87,8-2.62,9.58-5.23,12.52-10.46,3.13-5.45,8.8,2.18,23.48,19,28,17.65,46.56-2.4,51.46-6.75,10.56-13.3,11.93-14.82c2.15,2.39,11.15,23.53,11.15,23.53s26.81,24.2,32.09,23.11,56,7,63.59,1.3,50.08-31.38,54.19-30.94,17.42-1.53,21.72-7.41,21.52-8.07,28-19.84c18-22.23,17.41-25.5,24.26-15.69S670,538.37,684.83,541,730,563.36,730,563.36s38.87,37.49,43.3,36,47,7.92,51.39,0,53.48,5.77,67.31,4.61,77.47-15.7,79.82-18.31,1.57,8.72,8.87.87,35.48-28.19,38.87-23.54,9.39,26.45,18.78,25,21.92,16.42,25.83,16.06,56.35,23.75,62.35,18.81,26.09-11.62,26.09-11.62,31.82-.87,36.26-7,42,4.65,44.08,9.29,64.18,11.92,67.83,3.49,12-11,18-19.47,21.91-6.68,28.17-18,23.74-14.82,28.7-25.87,13.3-36.9,17.74-26.73,14.87,22.66,22.17,23.25,34.18,28.47,36.26,36.9,18.52,30.22,25.83,32S1487,638.48,1496,641.1s33.91,8.13,37,4.5S1553.39,628,1553.39,628s25.31-12.79,26.74-18,19-3.78,23-10.17,15.52-31.67,16.43-29.78,12.26,24.41,17.35,26,22.43,7.56,24.78,3.64,20.22-12.06,21.92-15.41,11.08-16.27,12.13-18.59,3.26-10.17,4.17-12.93,13.83-6.54,14.48-10.61,5.87-16.52,10.56-9.64,23.87,37.1,27.39,37.54,33.66,25,34.44,27.31,32.74,23.54,32.74,23.54,29.48,13.22,36.13,14.53,39.26,6.1,40.56,6,25.92,1.59,25.92,1.59v489.9L2.76,1134Z" transform="translate(-2.09 -481.26)"/><path class="cls-2" d="M75.89,563.72l-2,3.41,1,3.17,2.9.3L81.26,572l4.84-.64,3-1.29s-3-.78-4.24-1.12-6.4-3.18-6.4-3.18S77,563.65,75.89,563.72Z" transform="translate(-2.09 -481.26)"/><path class="cls-2" d="M124.15,554.91l-.81,1.44.81,2.25-.41,3.62,2.37,3.94,2.44,4.24,4.15,3.92,8,1.82,3.08-1.16s-6.88-4.14-7.41-4.67-5.94-6.72-6.56-8.35S125.11,554.52,124.15,554.91Z" transform="translate(-2.09 -481.26)"/><path class="cls-2" d="M149.13,575l-.28.47.59.45.31.82,1.68.54,2,1,1.14-.26A43.88,43.88,0,0,0,149.13,575Z" transform="translate(-2.09 -481.26)"/><path class="cls-2" d="M201.57,576.08l-.21,3.22,1.69,2.67,5.7,2.32,7.21,4.36,4.28,3.71,8.41,1.57,5.59-1.07s-18.9-11.88-20.4-12.12a8.49,8.49,0,0,0-2.87-1.22C209.51,578.84,202.64,576.77,201.57,576.08Z" transform="translate(-2.09 -481.26)"/><path class="cls-2" d="M311.72,510.42l-1.37,3.28-1.83,4.76,2,1,1.63,3.07,3.13,1.66,5,4.67s5.68,1.53,5.78,1.53,9.22,3.16,9.22,3.16l5.24-.38s-7.1-3.3-9.83-5.39-10.28-8.74-11.58-10.53S313.9,510,311.72,510.42Z" transform="translate(-2.09 -481.26)"/><path class="cls-2" d="M408.26,512.18l-1.76,5-3.93,3.66,4.4,5.76,1.63,7.5,11.4,6.7,3.26,5.6,24.54,14.09c.09.07,20.16.9,20.16.9l5.06-.69L432.48,540.8S411.38,513.26,408.26,512.18Z" transform="translate(-2.09 -481.26)"/><path class="cls-2" d="M638.18,481.29l-7,12.51-3.42,12.8,6.84,18.86,12.28,19,19.92,17.87,23.34,7.14s43.88-1.19,38.78-6.61-51-28.32-54.85-33.45S645.18,480,638.18,481.29Z" transform="translate(-2.09 -481.26)"/><path class="cls-2" d="M972.45,585.34,971.28,587l.29,1,1.71,1.66,2.77-.32a9.54,9.54,0,0,1-2.83-3.38C973.05,585.51,972.52,585.24,972.45,585.34Z" transform="translate(-2.09 -481.26)"/><path class="cls-2" d="M1018.51,562.45l-7.07,3.24,1.18,5-3.45,4.91,4.67,7.28v11.19l10.06,6.09,17.42,7.69,7.23,1.06c-4.19-4.26-24.12-37.91-24.6-39S1021.28,562.87,1018.51,562.45Z" transform="translate(-2.09 -481.26)"/><path class="cls-2" d="M1027.22,583.77v2.76l6.94,3.37,7.59,1.74L1046,599l14.17,5.77,18.55,7.68C1067.17,605.59,1043.94,582.81,1027.22,583.77Z" transform="translate(-2.09 -481.26)"/><path class="cls-2" d="M1391.51,524.81l-2.21,3.1,1.11,8.22-3.06,9.52,10,12.26,9.52,23.61,20.09,4.05,19.3,9,5.87,12.39,20.22,13.43,9.78,2.39a7.46,7.46,0,0,0-1.36-1.65,13,13,0,0,0-5.06-3c-2-.49-6-4.34-7-5.74s-10.86-13-12.67-16.13-3-7.52-5.17-11.18c-2.47-5-7.62-11-10.77-14.38s-14.28-13.9-15.86-15.28-4.6-4.7-5.91-4.79-5-3.13-5.48-4.11-8.62-4.24-10.91-7.24S1393,525.14,1391.51,524.81Z" transform="translate(-2.09 -481.26)"/><path class="cls-2" d="M1619.52,570.05l-.94,3.06.29,4.73-2.12,4.2,1.39,10.08,6.89,3.13,9.59,1,2.25-.15S1621.87,572.36,1619.52,570.05Z" transform="translate(-2.09 -481.26)"/><path class="cls-2" d="M1722.44,530.54l-2.11,2.15v3.18l-.63,3.72,2.34,5.67-2.15,6.16,4.31,2.3,11.15,7.63,9.05,2.64,1.37-.88s-11.19-16-13.57-19.6S1724.76,530,1722.44,530.54Z" transform="translate(-2.09 -481.26)"/><polygon class="cls-2" points="625.67 25.34 621.57 35.83 621.57 60.98 617.91 67.65 633.04 76.78 664.87 87.22 688.87 86.57 625.67 25.34"/><path class="cls-2" d="M1012.62,570.69l-9.3,5.29-4,3.91,6.66,3.43-3.33,6.4,8.51,10.13,19.76,5.67,10.42,2.33,22.94,3.15,14.45,1.43,5-1.33s-16.5-10.37-28.54-10.27-11.44-10.37-11.44-10.37l-18.3-6.07Z" transform="translate(-2.09 -481.26)"/><polygon class="cls-2" points="997.22 98.63 994.18 104.06 986.55 108.9 984.7 115.46 998.98 124.46 1022.16 123.67 1052.98 125.34 1005.43 98.63 997.22 98.63"/><polygon class="cls-2" points="969.19 105.77 966.7 107.14 962.78 109.29 961.32 111.35 963.57 113.6 969.19 114.67 973.97 108.14 969.19 105.77"/><polygon class="cls-2" points="961.32 111.98 957.91 116.31 966.83 122.04 981.04 129.09 1012.61 129.09 1038.57 131.83 1059.01 129.31 1012.61 114.67 984.4 110.66 973.97 110.3 973.97 108.14 961.32 111.35 961.32 111.98"/><path class="cls-2" d="M308.52,518.46l-3.85,3.5,1.31,4.32-1.31,6.79,9.92,3.69s14.21-1,14.41-1,9,3.26,9.59,3.13,9-2.67,9-2.67l7.3-2-3.65-1s-5-.46-6.65.65c-2.35-1-3.07-.58-5.55-1.95a90.58,90.58,0,0,0-9.26-3.72Z" transform="translate(-2.09 -481.26)"/><path class="cls-2" d="M833.69,597l-5.58,1.31,2.59,1.18,2.1,1.42,10,.88,12,2.15,9.19-.69,8.56-.63v-.46S839.92,596.32,833.69,597Z" transform="translate(-2.09 -481.26)"/><polygon class="cls-1" points="985.99 110.89 979.74 113.76 972.3 113.37 971.58 110.3 973.97 108.14 981.5 108.14 985.99 110.89"/></svg>