<svg id="Capa_3" data-name="Capa 3" xmlns="http://www.w3.org/2000/svg" viewBox="0 0 2047 2472.73"><defs><style>.cls-1{fill:#fff;fill-rule:evenodd;}</style></defs><title>prisma-3</title><path class="cls-1" d="M2047,1953.84l-.19-3.76-.25-3.8-.22-2.56-.3-2.72-.56-4.25-.52-3.26-.44-2.4-.55-2.77-.92-4-.66-2.64-.7-2.55-1.55-5.11-1.16-3.42-1.11-3-3.4-8.15L1197.39,121.33S1178.31,82,1178.33,82c-5.11-9.72-18.61-25.06-18.69-25.15-5.74-6.51-16.62-15-16.74-15.1-14-12.29-33.47-18.73-33.88-18.88-9.39-4-28.26-7.48-28.34-7.49-15.74-3.35-38-.76-37.92-.77C1019.1,16.28,994,30,994,30c-28,14.15-47.14,42.53-47.14,42.53L63.79,1503s-41.79,67.7-52.7,88.42-11.08,53-11.08,53v1.86l0,2.2.07,2.49.08,2,.26,4,.32,3.5.62,5.08.93,5.75,2,9L7.44,1691l1.46,4.11,3.86,9.26,4.92,9.68,4.48,7.48L429.85,2353l12.91,20,11.74,18.19,9.14,14.15,7.83,12.14,5.61,8.38,4.91,6.46,3.52,4.21,7.52,8,8.74,8,9.32,7.18,7.5,5,9.53,5.41,12.14,5.6,15,5.15,11.23,2.72,7.38,1.28,8,.95,8.31.6h7.53l8.21-.42,7.11-.72,10.76-1.77,9.57-2.29,9.08-2.66L1866,2116.46l27.87-8.24,20.39-6,19.31-5.72,12.82-3.8,9.25-3.2,11.65-5.09,9.35-5L1985,2074l9.62-7.17,5.28-4.52,5.63-5.34,6.48-6.92,8.41-10.59,5.58-8.34,3.46-5.88,4.5-8.81,2.73-6.28,1.75-4.52,1.45-4.17,1-3.16.84-2.84,1-3.75.62-2.55.44-2,.42-2,.67-3.53.44-2.64.41-2.82.33-2.59.3-2.86.34-4.08.16-2.84.11-3.05,0-2.43v-4.57Zm-165.91-22.92-.56,3.37-.66,2.9-1.38,4.5-2.38,5.66-3.3,5.79-2.52,3.51-2.54,3-3.59,3.59-4.11,3.37-3.33,2.26-3.82,2.18-6.55,2.84-9,2.77L1802.41,1987l-9.06,2.68-22,6.5-11.26,3.33-9.56,2.83-16.82,5-11.48,3.4L737.45,2302l-7.19,2-3.74.72-2.84.34-3.18.18-2.55,0-2.49-.16-1.68-.17-2.59-.4-2.66-.57-2.26-.62-2.63-.87-3-1.22-2.72-1.31-2-1.14-2.12-1.32-2.1-1.48-1.5-1.16-1.67-1.41-1.59-1.48-1.39-1.4-1.59-1.77-1.66-2.05-1.16-1.58-1.71-2.64-1-1.82-.79-1.53-.83-1.76-.91-2.21-.59-1.64-.52-1.67-.45-1.65-.52-2.26-.35-2-.23-1.75-.28-1.75V2260l0-2.3,0-1.61.29-1.42.22-2.24.28-1.66.33-1.87.25-1.71.21-.92,395.29-1892.7,1.93-7.9,1.9-4.64,2.86-4.85,2.93-3.67,3.05-3,3.51-2.69,3.62-2.15,4.25-1.91,3.28-1.07,4.5-1,4.7-.48H1109l4.73.38,4.15.84,4.82,1.6,4,1.9,4.17,2.71,3.87,3.33,3.6,4.16,2.22,3.34,4.33,8.75,729.44,1549.49,2.24,4.76,2.1,5.18,1.24,4.12.9,4.23.59,4.63.17,6.26Z" transform="translate(0 -13.63)"/></svg>