<?xml version="1.0" standalone="no"?>
<!DOCTYPE svg PUBLIC "-//W3C//DTD SVG 20010904//EN"
 "http://www.w3.org/TR/2001/REC-SVG-20010904/DTD/svg10.dtd">
<svg version="1.0" xmlns="http://www.w3.org/2000/svg"
 width="376.000000pt" height="376.000000pt" viewBox="0 0 376.000000 376.000000"
 preserveAspectRatio="xMidYMid meet">

<g transform="translate(0.000000,376.000000) scale(0.100000,-0.100000)"
fill="#FFB4D8" stroke="none">
<path d="M3310 3749 c-275 -26 -543 -99 -741 -200 -119 -61 -213 -130 -346
-254 l-102 -96 -108 12 c-511 55 -1041 -184 -1379 -622 -66 -86 -70 -98 -45
-148 24 -47 40 -55 124 -65 107 -12 275 -89 455 -209 67 -45 90 -66 86 -77
-42 -99 -47 -122 -37 -173 l11 -52 -93 -96 c-83 -86 -94 -101 -105 -150 -23
-105 -17 -116 228 -361 254 -256 287 -276 392 -248 36 10 65 31 140 106 l96
94 38 -11 c45 -12 111 0 165 32 18 11 35 19 36 17 1 -2 33 -48 69 -103 121
-181 206 -377 206 -478 0 -50 35 -87 83 -87 46 0 141 72 282 214 127 128 204
232 280 378 133 255 199 592 166 856 l-12 93 96 102 c124 133 193 227 254 346
125 244 196 556 207 906 5 170 4 182 -15 213 -40 62 -70 72 -216 71 -71 -1
-168 -5 -215 -10z m276 -282 c-22 -414 -118 -739 -284 -964 -158 -212 -504
-522 -987 -883 -209 -156 -344 -250 -360 -250 -17 0 -130 74 -208 137 l-69 55
191 192 c186 187 191 193 191 233 0 49 -34 83 -84 83 -27 0 -56 -25 -222 -191
l-192 -192 -46 59 c-69 86 -146 206 -146 225 0 33 408 575 635 844 142 169
349 380 450 462 82 66 226 146 339 188 181 68 480 120 715 124 l84 1 -7 -123z
m-1613 -423 c3 -3 -34 -52 -82 -108 -123 -141 -250 -301 -403 -507 l-132 -177
-50 37 c-28 21 -101 68 -163 105 -95 57 -153 84 -306 144 -15 6 -6 20 59 85
276 282 594 420 980 426 50 0 93 -2 97 -5z m1067 -1349 c-33 -231 -116 -433
-257 -623 -61 -82 -172 -203 -214 -233 l-27 -19 -17 52 c-35 107 -144 307
-236 434 l-37 51 166 124 c179 133 404 311 542 428 l85 72 3 -103 c2 -57 -2
-139 -8 -183z m-1675 -30 c80 -103 170 -197 254 -267 47 -39 90 -76 96 -80 13
-12 -104 -128 -130 -128 -13 0 -88 68 -213 193 -105 106 -192 196 -192 201 0
14 133 147 140 139 3 -5 24 -30 45 -58z"/>
<path d="M2655 3097 c-196 -50 -321 -236 -285 -421 60 -303 428 -417 634 -196
183 196 116 507 -129 599 -70 26 -158 33 -220 18z m171 -183 c77 -37 126 -141
105 -221 -26 -97 -97 -153 -194 -153 -119 0 -200 79 -200 195 0 79 38 141 108
178 40 21 137 22 181 1z"/>
<path d="M2100 2212 c-48 -23 -63 -79 -33 -120 35 -47 115 -42 137 9 15 36 11
66 -12 96 -25 30 -52 35 -92 15z"/>
<path d="M790 1383 c-8 -3 -59 -48 -112 -100 -142 -136 -207 -159 -314 -108
-50 24 -56 24 -88 11 -42 -18 -60 -48 -52 -91 7 -37 23 -53 86 -86 38 -20 60
-24 140 -24 135 0 198 31 331 161 54 53 103 109 109 125 17 41 -3 87 -46 105
-19 8 -35 14 -36 13 -2 0 -10 -3 -18 -6z"/>
<path d="M75 1302 c-38 -8 -65 -43 -65 -84 0 -51 27 -78 79 -78 32 0 44 6 65
31 30 35 32 49 11 88 -15 30 -57 50 -90 43z"/>
<path d="M1015 1121 c-46 -29 -233 -223 -244 -253 -20 -52 21 -108 79 -108 33
0 47 11 169 135 128 129 133 136 127 167 -7 38 -47 78 -79 78 -12 0 -35 -9
-52 -19z"/>
<path d="M1255 882 c-16 -10 -68 -59 -114 -108 -61 -65 -94 -109 -120 -164
-32 -68 -36 -83 -36 -160 0 -66 5 -95 22 -132 46 -100 107 -125 164 -69 35 35
36 63 7 116 -29 53 -29 126 -1 180 12 22 58 76 103 120 115 113 131 150 88
199 -31 35 -75 42 -113 18z"/>
<path d="M625 735 c-29 -28 -31 -54 -10 -94 25 -49 86 -56 129 -16 54 50 17
135 -59 135 -25 0 -44 -8 -60 -25z"/>
<path d="M1162 147 c-49 -52 -10 -137 63 -137 75 0 112 84 60 135 -33 34 -93
34 -123 2z"/>
</g>
</svg>
