<svg id="Capa_4" data-name="Capa 4" xmlns="http://www.w3.org/2000/svg" viewBox="0 0 1917.91 606.76"><defs><style>.cls-1{fill:#5d4f78;}.cls-2{fill:#716391;}</style></defs><title>layer4</title><path class="cls-1" d="M1,569.49S9,588,24.7,587.26s44.21-1.71,47-8.87,13.7,7.31,31.7,13.18,29,32.47,41.87,27,19.69-4.33,22.37-19.19,6.19-36,6.19-38,1.57-19.95,4.31-19.17,14.08,3.52,19.17.39c2.74,12.92,5.48,59.87,13.31,66.92s18,35.6,24.65,36S252,668.26,263,666.3s29.74-30.91,34-28.56,13.31,13.3,25,13.69,26.4,12.89,36.09,6.45,24.56-24.45,24.56-24.45,7.43-10.95,7.83-14.08,4.3-.39,10.17-.39,12.91,3.91,15.65,1.95,20,1.57,23.09,2.35,24.65.78,26.22,0,5.08,20.35,13.3,24.26,12.13,29.35,19.17,28.57,29.35,25.43,34.44,23.48,24.15,16.36,28.56,11.73,23.87-14.08,25.05-16.82,15.65-13.7,18.78-9,5.09,22.69,10.57,23.09,22.69,14.08,25.43,14.08,65.74,17.22,70,16.83,16.06,6.18,25.83,4.69,27.78-6.65,29-9.78,12.13-17.22,12.52-20,12.52-3.91,18.78,3.53,18.39,34.82,24.65,34,23.09,6.65,27,3.13,22.31,14.48,29.74,9.39,29,0,31.7-5.09,21.13,2.35,21.13,2.35,12.13,16.83,19.95,16.05,19.72.13,21.53-3.13,15.65-20,15.65-20,9.39-5.87,11.74-.78,14.87,18.78,17.61,19.17,25,17.61,29.74,16.83,25.43-3.92,27-7.05,18.39-21.52,18.78-23.08,8.33-7.29,13.75,2,20.29,20.27,29.68,16,45.79-3.13,48.13-9S1208,751.22,1208,751.22l37.57,1.17s21.13-19.17,22.3-23.87,10.17-17.22,13.7-11.74,32.08,28.57,32.08,28.57,43-20,46.18-24.26,32.47-17.22,38.34-17.61S1424,674.13,1424,674.13s25.43-2,29.74-2,51.65,4.31,51.65,4.31,29.74-7.83,30.91-8.22,33.66,2.35,35.61,3.52,5.48,15.26,11.74,16.05,45.78,35.21,51.65,33.65,45.79,3.52,50.87-1.18,33.26-23.87,36-24.65,21.13,1.57,22.7,3.13,31.3,26.61,36.39,24.65,23.48-20.73,27.39-24.65,33.26-14.08,36.78-15.26,37.57-18.39,40.7-17.41,32.83,0,32.83,0V1149H1.69Z" transform="translate(-1.04 -542.24)"/><path class="cls-2" d="M73.87,576.62v5.68L80,585.7l-.52,7.56,16.17,6,10,9.91L126,614.91l3.15-2.63s-15.29-16.35-21.54-18.87C94.74,587.73,76.35,574.32,73.87,576.62Z" transform="translate(-1.04 -542.24)"/><path class="cls-2" d="M187.36,544l-5.1,8.33.78,13.83s-4.3,14.74-4.3,15.26,2.35,24,2.35,24,14.21,19.7,14.74,19.83S212.39,646,212.39,646L226,653.39l16.69,3,3.63-1s-4.67-9.46-12-10.64c-2.54-5.74-8.81-11.48-10.76-17.35s-14.22-24.26-16-28.43-6.07-26.35-6.07-26.35-3.48-29.51-4.1-30C197,542.82,190.14,544.71,187.36,544Z" transform="translate(-1.04 -542.24)"/><path class="cls-2" d="M296.52,637.61l-3.13,7.73-4.11,8.21,1.08,11,14.48,5.87,20.05,3,15.16-11.93.71-4.32s-9.51-6.25-15.87-5.76c-5.09-.58-6.67-.69-11.55-2.55S300,638.1,296.52,637.61Z" transform="translate(-1.04 -542.24)"/><path class="cls-2" d="M436.22,622.54l-8.81,4.7s4.5,11,3.52,11.54-6.06,15.46-6.06,16.73,11.35,18.69,11.35,18.69l16,22.69,21.52-3.72,8,14.48,36.79-1,21.13,4.9,10-3.54s-10.12-10.49-17.1-8.46c-4.83-3.85-11.48-7.18-15.2-11.09s-17.8-16.83-23.28-15.26c-1.76-3.52-6-11.75-6.84-13.68s-2.49-8.56-8.29-12c-3.46-6.39-5.64-5-7.66-10.17s-4.41-14.62-5.64-14.09c-.85.19-11.8.36-14,.24s-11.47-.17-11.47-.17Z" transform="translate(-1.04 -542.24)"/><path class="cls-2" d="M601.54,684.4l-6.71,7.27-.33,7.57-5.93,3.19,1.1,13.24,13.63,4.24,16.5.59,8.81,6.46,12.65-1.44,3.88-2s-11.84-6.6-15.29-7.18c-3.07-2.09-12.39-7.83-12.39-7.83s-3.85-.13-5.81-5.74-6-16.08-6-16.08A3.4,3.4,0,0,0,601.54,684.4Z" transform="translate(-1.04 -542.24)"/><path class="cls-2" d="M787.57,712.65l-3.22,3.15-4.76,4.77,3.71,7.23-4.76,3s5.22,7.5,5.74,8.42,6.59,9.78,6.59,9.78l12.52,1.3,14,1.9,2.1-.9s-6.06-6.59-8.83-11.22-7.21-12.32-7.62-13S797.64,713.41,787.57,712.65Z" transform="translate(-1.04 -542.24)"/><path class="cls-2" d="M920.35,758.36l-4.07,2.57L914,765h-2.93l1.1,3.78,7.11,1.7,2.74,4.95,13.05,2.09,10.69.52,2.73-.56s-8.79-4.75-11.89-9.27a37.27,37.27,0,0,0-5.25-6.41S923.25,758.4,920.35,758.36Z" transform="translate(-1.04 -542.24)"/><path class="cls-2" d="M996.66,751.89l-3.91,4.38-5.18,5.19-2.45,9.09h8.71l-1.18,5.29s10.37,1.37,11.06,1.66,11,4.89,11,4.89h13l6.5,1.09s-10.93-9.73-16.44-10.35c-3.75-3-13.53-11.42-16.18-16.73S998.88,751.6,996.66,751.89Z" transform="translate(-1.04 -542.24)"/><path class="cls-2" d="M1100.14,756.68l-3.4,3.93,1.7,4.17-3.66,4.31-2.61,5.48,14.48,2.21,10.57,3.65,11.91-1.94s-10.92-5.39-14.1-8.23-6.59-5.53-7.67-8S1104.28,756.7,1100.14,756.68Z" transform="translate(-1.04 -542.24)"/><path class="cls-2" d="M1279.35,715.43l-1.7,3.7-2.74,3.39.66,5.48-2.35,2.22-4.31,7.95,11.61,4.7,17.61,1.56,15.52.92-27.79-24.22-3.81-3.68S1281.18,715.26,1279.35,715.43Z" transform="translate(-1.04 -542.24)"/><path class="cls-2" d="M1456.27,672.3l-11.79,8.61,17,6v6h31.31L1511,700l21.91-4.44,34.7,7.57,17.48,9.65,27.65,9.65,21.31-1s-16.79-8.37-27.66-18.31-19.74-14.87-23.16-15.36c-2.1-1.77-3.68-1.77-5.38-4.8s-4.91-10.86-5.94-11.17-30.84-4-35.3-3.55-14.38,3.57-14.38,3.57l-9.44,2.74-7.4,1.94S1460.84,672,1456.27,672.3Z" transform="translate(-1.04 -542.24)"/><path class="cls-2" d="M1722.92,695.54l4.41,4.68-5,3.52,6.16,6.55,15.55,6.56,21.62,2.54,3.73-1.47s-17.88-12.61-20.59-15.75-.81-3.17-6.09-4.25S1728.4,694.8,1722.92,695.54Z" transform="translate(-1.04 -542.24)"/><polygon class="cls-2" points="942.42 235.67 947.45 238.07 965.13 237.03 991.61 233.6 1002.66 235.26 1026.73 240.16 1017.83 243.81 1006.35 250.59 975.83 253.2 970.61 248.76 940.48 247.59 923.39 244.46 924.3 241.25 918.04 235.79 920.98 233.18 942.42 235.67"/><polygon class="cls-2" points="777.5 188.57 774.96 195.42 773.91 202.07 779.91 210.55 799.61 216.68 822.04 216.68 777.5 188.57"/><path class="cls-2" d="M850.12,754.67l-1,2.87-2.93,3.82,9.39,4.69,16,2.55,3.43-3.17s-12-4.39-14.7-7.31S852.27,754.54,850.12,754.67Z" transform="translate(-1.04 -542.24)"/><polygon class="cls-2" points="822.04 216.68 845.16 219.12 869.78 226.36 827.78 224.37 795.7 222.68 777.5 218.63 773.91 202.07 822.04 216.68"/><polygon class="cls-2" points="838.62 218.43 848.78 215.24 856.93 221.31 841.09 221.89 838.62 218.43"/><polygon class="cls-2" points="1091.13 232.33 1084.93 236.83 1086.3 242.31 1079.85 248.37 1091.13 250.53 1111.35 247 1122.5 240.16 1128.09 236.25 1098.83 232.33 1091.13 232.33"/><path class="cls-2" d="M1268.91,738.17l-4.56,3.85-5.61,5.68,4.76,4.3,10.57-.26s11.15,2.41,11.41,2.48,20.61-3.46,20.61-3.46l7.56-5.41Z" transform="translate(-1.04 -542.24)"/><path class="cls-2" d="M1722.34,703.74l-8,3.33-2.68,4.43L1700.91,717l-5.54,5.68,15.85,4.63,12.85,4.37s17.34-1.31,18-1.31,24-4.37,24.19-4.3,3.14-8.19,3.14-8.19Z" transform="translate(-1.04 -542.24)"/></svg>