<svg id="Capa_3" data-name="Capa 3" xmlns="http://www.w3.org/2000/svg" viewBox="0 0 1920 676.81"><defs><style>.cls-1{fill:#a1729d;}.cls-2{fill:#c18ebf;}</style></defs><title>layer3</title><path class="cls-1" d="M2.09,497.25S34.48,510,41.13,491s20.35-66.13,20.35-66.13a32.17,32.17,0,0,0,13.69,2.85c8.22,0,12.13,1,12.53,3.33s-2,49,5.87,50.91,16,38.54,22.69,38.54,47.35,2.38,62.61,10.47,30.91,38.06,52,31.87,54.39,41.87,65.74,38.54,40.31-24.26,43.83-35.21,6.26,9,10.56,11,24.66,30.92,26.61,29,29.74,15.7,41.48-1.9,9.39,11.41,16.83-4.29,55.56-10,55.56-10,37.18-12.37,39.13-18.08,10.18,48.53,20.74,51.86S594,661.77,600.3,662.25,634,649.88,634,649.88l32.08-39s20.74-23.32,23.87-17.13,5.87,47.1,16.83,49S774.43,697,785,686.51s32.09-19.5,34.43-31.87,8.61,1,15.27-7.61,48.52-33.31,48.52-33.31l5.08,20.14s19.83,33,29.22,34.26,62.09,38.06,72,34.89,47.48-19,49.57-26,26.61,51.38,26.61,51.38,61.56-53.92,61.56-60.26,22.44-4.44,22.44-4.44,30.78-34.89,35.47-45,44.35-42,44.35-42l12,29.34s39.13,47.51,57.52,40.85,10.93-21.8,32.37-25.38,87.14-69.15,95.33-78.27c12.52-14,7.83-22.2,25,4.44s45.92,32.35,51.65,24.1,52.18-31.08,52.18-31.08,8.87,18.4,17.74,7,6.26,10.78,14.61-1.9,33.39-22.84,40.69-33,30.32-16.49,37-29.18c7.3,9.51,31.3,67.88,57.39,69.78s49,31.08,69.91,32.35,129.09-20,129.09-20v534.72L2.76,1101.65Z" transform="translate(-2.09 -424.84)"/><path class="cls-2" d="M87.74,433.15H70.15l-4.5,9.78,4.89,6.85,1.57,12.92,9.38,10.37,3.14,19s6.65,17.22,7,17.81,19.57,14.08,19.57,14.08l5-3.46s-14.61-38.6-22-41.93C88.2,475.85,87.44,434.39,87.74,433.15Z" transform="translate(-2.09 -424.84)"/><path class="cls-2" d="M343.14,563l-1.36,6.61-2.21,6,3.57,15.92,7.77,9.13,16.31,3.39,8.21,3.52L377,606.1S362.83,586.52,359,585.32c-1.79-2.36-8.8-9.85-10.49-11.46C348,572.24,345.27,564.51,343.14,563Z" transform="translate(-2.09 -424.84)"/><path class="cls-2" d="M426.36,598.43,425,599.91l-2,2.68,1.11,3,4.31,1,3.31-1.85S428.16,598.62,426.36,598.43Z" transform="translate(-2.09 -424.84)"/><path class="cls-2" d="M531.08,571.45l-.46,2-1.91,2-.14,4-.79,1.38-1.56,7.36-3.28,9.24,3.33,6.8,2.88,10.32,9.49,4,9.61,2.71s-3.74-6.86-4.61-8.91-8.37-27.58-9.2-30.74S532.61,571.92,531.08,571.45Z" transform="translate(-2.09 -424.84)"/><path class="cls-2" d="M688.67,592.75,686.21,595l-3.57,4v5.38l-4,4.6,4.21,9.83,4,13.89,8.75,9.1,10.27.76s-4.52-4.77-6-8.24-6.64-25.93-6.64-25.93S691.73,592.08,688.67,592.75Z" transform="translate(-2.09 -424.84)"/><path class="cls-2" d="M883.22,613.72l-4,5.37-5.94,4.56.27,5.81-3.46,8.15,2.48,9.06-3.72,4.11,8,4.11,13,10.18,13.63,3.26L917,668s-8.36-6.29-12.52-11.26c-2.35-2.81-15-20.8-15.14-21.29S883.94,618.19,883.22,613.72Z" transform="translate(-2.09 -424.84)"/><path class="cls-2" d="M1039.83,676.46v4.29l-2.57,1.76-2.15,11.2-6.7,2.3-1.52,13,7.19,7.73,1.13,7,24.31,5.53,6.18-.89S1044.9,678.58,1039.83,676.46Z" transform="translate(-2.09 -424.84)"/><path class="cls-2" d="M1438.54,530.23l-1.07,2.51-3.13,5.48,2.1,6.55-2.1,3.33,2.74,8.12,16.14,7.73,11.83,5.77,8.14-1.2s-13.36-11.13-16.4-15.34S1443.53,530.65,1438.54,530.23Z" transform="translate(-2.09 -424.84)"/><path class="cls-2" d="M1555.4,540.71l-.93,2.06-2.89,2-2.49,5.38,5.92.49,4.59,2.45,5.38-2.12s-8.3-7.49-9.37-10.31Z" transform="translate(-2.09 -424.84)"/><path class="cls-2" d="M1578,544.22l-1,1.46-1.08,2.35,1.93,1.8,2.83,1.24,1.76-1.81a29,29,0,0,1-2.29-3.32A2.93,2.93,0,0,0,1578,544.22Z" transform="translate(-2.09 -424.84)"/><path class="cls-2" d="M1665.7,483.52l-.74,4.37-5,9,1.37,4.41,1.81,6.75-4,3.57,4.74,9.63,4.5,12.82,9.79,8,16.14,9.49,24.94,1s-14.38-8.35-18.88-14.8-16.38-22.36-18.73-27.15S1667.41,484.43,1665.7,483.52Z" transform="translate(-2.09 -424.84)"/><path class="cls-2" d="M682.64,598.92l-7.21,14.56-10.82,14.61-2,14.39,10,12.09s35.92,9,36.57,9.26,19.17,14.47,19.17,14.47l20.74,1.18,9.54-1.59s-23.76-22.28-31.45-22.8c-7.31-6.92-15-17.22-20.22-17.48S682.64,598.92,682.64,598.92Z" transform="translate(-2.09 -424.84)"/><path class="cls-2" d="M875.65,624.57l-8.22,3.52-6.13,15.65L851.13,657.3s2,11.22,2,12.53,19,25.43,19,25.43l-5.61,7.31L890,713.91l27-7.56s13.83,5.42,15,6.3,22.17-15.56,22.17-15.56l3.69-7.27s-18.43-14.91-27-16.08c-8.61-5.41-21.92-9-21.92-9Z" transform="translate(-2.09 -424.84)"/><path class="cls-2" d="M1230.05,577.91l-8.35,9.94-15.27,20.87s-1.43,14.87-1.43,15.06-12.39,51-12.39,51l33.26,7.05,50.09-9,4.69-18,4.24-10.24s-15.78-10.6-22-19.16S1241.52,606,1241.52,606Z" transform="translate(-2.09 -424.84)"/><path class="cls-2" d="M1435.48,541.78l-6.13,10.2-6.13,15.59,3.78,7.89s16.11,1.56,16.89,1.69,18.39,0,18.39,0l13.83-1.5,3.46-3.86-19.31-7.68Z" transform="translate(-2.09 -424.84)"/><path class="cls-2" d="M1549.09,550.1l-5.77,4.45,9.29,2.74,11.84,3.23s8.41-2,8.7-2,7.63-4.5,7.63-4.5l4.68-5.17s-1,1.11-2,.83a2.86,2.86,0,0,1-1.75-1.14c-.49-.56-11.07,2.93-11.07,2.93l-4.59.52-1.07-1Z" transform="translate(-2.09 -424.84)"/><polygon class="cls-2" points="1025.94 274.43 1016 280.17 1017.27 290.54 1013.36 294.85 1020.21 303.55 1032.14 309.03 1054.64 305.51 1059.24 303.26 1025.94 274.43"/><path class="cls-2" d="M1423.22,567.57l-1.18,5.08,6.66,5.61,24.26,2.35,21.78-2.09,3-4.73,1.8-2-6.38-3.27s-4.08,0-4.12,0-3.3,3-3.3,3Z" transform="translate(-2.09 -424.84)"/><path class="cls-2" d="M1661.17,500.77l-9.17,7.71-.78,8.74-8.74,5.61,2.09,15.65,5.08,9.95,12.13,6.05s23.22,5.13,24.13,4.87,8.45-7.73,8.45-7.73l-29.45-49Z" transform="translate(-2.09 -424.84)"/><path class="cls-2" d="M1543.32,554.55l-5.78.62-2.74,5-5.41,4.11,13.31,2.41s12.06,4.57,12.39,4.57,17-7.63,17-7.63l1-5.12Z" transform="translate(-2.09 -424.84)"/><polygon class="cls-2" points="1562.9 126.08 1566.49 126.81 1563.31 127.78 1562.9 126.08"/><path class="cls-2" d="M527.72,581.12s-7.44,1.58-7.24,1.51S512,587,512,587l-3.46,9.35-8.21,3.11,1.3,15.19L514,618.5l10.05,7.24L541,623.2l7.29-2Z" transform="translate(-2.09 -424.84)"/><path class="cls-2" d="M423,602.59l-2.91,4-1.72,3-1.22,1.52,1.08,2.3,3.66,1.07.3-1.42s1.71-.29,2-.29,2.6.1,2.6.1l.93-2.74,2.34-2.4,1.67-3Z" transform="translate(-2.09 -424.84)"/><path class="cls-2" d="M339.62,575.91l-4.29,2.74-1.11,3.2-5.35,6.72s1.11,3.26,1.24,3.45-.46,7.63-.46,7.63l9.13,2.94,20.94,2.87,15.71,2.15Z" transform="translate(-2.09 -424.84)"/><path class="cls-2" d="M227.55,563.5l-1.46,8.27,14.48,14.77,25,5.87,16.7,1.64s-30.88-30.85-45-31.6A20.36,20.36,0,0,0,227.55,563.5Z" transform="translate(-2.09 -424.84)"/><path class="cls-2" d="M150.28,523.48,127.87,525l-10.47,2.54,5.94,5.09h15.39l3.23,4.7s9.49.78,10.76,1,16.14,4.1,16.14,4.1l10.66,10.37V563s8.81,4.3,10.18,4.69,12.13,10.6,12.13,10.6L214.74,580l16.34,5,9.49,1.54-14.48-14.77-18.1-11-1.32-5.06s-19.78-19.13-22.5-21.14a40.88,40.88,0,0,0-14.82-7.18C162.21,525.59,157.63,524,150.28,523.48Z" transform="translate(-2.09 -424.84)"/></svg>